<svg id="visual" viewBox="0 0 900 300" width="900" height="300" xmlns="http://www.w3.org/2000/svg" xmlns:xlink="http://www.w3.org/1999/xlink" version="1.1"><rect x="0" y="0" width="900" height="300" fill="#e3e3e5"></rect><path d="M0 207L129 186L257 177L386 195L514 195L643 215L771 186L900 182L900 301L771 301L643 301L514 301L386 301L257 301L129 301L0 301Z" fill="#f47676"></path><path d="M0 205L129 202L257 228L386 231L514 218L643 211L771 204L900 210L900 301L771 301L643 301L514 301L386 301L257 301L129 301L0 301Z" fill="#e98973"></path><path d="M0 248L129 242L257 232L386 226L514 248L643 223L771 221L900 252L900 301L771 301L643 301L514 301L386 301L257 301L129 301L0 301Z" fill="#dc9978"></path><path d="M0 268L129 250L257 255L386 240L514 253L643 244L771 258L900 260L900 301L771 301L643 301L514 301L386 301L257 301L129 301L0 301Z" fill="#d0a685"></path><path d="M0 285L129 270L257 278L386 265L514 283L643 280L771 279L900 278L900 301L771 301L643 301L514 301L386 301L257 301L129 301L0 301Z" fill="#c6b198"></path></svg>